<svg xmlns="http://www.w3.org/2000/svg" viewBox="0 0 768 768"><defs><style>.cls-1{fill:#ffefcf;}</style></defs><g id="Layer_2" data-name="Layer 2"><g id="Layer_1-2" data-name="Layer 1"><path class="cls-1" d="M720.25,145.31a237.67,237.67,0,0,0-153.32,55.76A239.15,239.15,0,0,0,617.91,0H150.07a240.63,240.63,0,0,0-4.77,47.73A237.74,237.74,0,0,0,201,201,239.14,239.14,0,0,0,0,150.09V617.93a240.4,240.4,0,0,0,47.73,4.77A237.69,237.69,0,0,0,201,567,237.71,237.71,0,0,0,145.3,720.27,240.63,240.63,0,0,0,150.07,768H617.91A239.14,239.14,0,0,0,567,567,237.72,237.72,0,0,0,720.25,622.7,240.68,240.68,0,0,0,768,617.93V150.09A239.94,239.94,0,0,0,720.25,145.31Zm-183,392a238.73,238.73,0,0,0-306.53,0,238.73,238.73,0,0,0,0-306.53,238.71,238.71,0,0,0,306.62,0,238.71,238.71,0,0,0,0,306.62Z"/><circle class="cls-1" cx="384" cy="384" r="60.98"/></g></g></svg>