<svg xmlns="http://www.w3.org/2000/svg" viewBox="0 0 207.37 59.47"><defs><style>.cls-1{fill:#ffefcf;}</style></defs><g id="Layer_2" data-name="Layer 2"><g id="Layer_1-2" data-name="Layer 1"><rect class="cls-1" x="66.06" y="37.74" width="17.38" height="20.32"/><path class="cls-1" d="M173.15,7V20.88A17.32,17.32,0,0,1,160,37.74h30V7h17.38V58H190V46.43s-3.15,13-16.84,13c-11.35,0-17.38-9.32-17.38-17.38V7Z"/><path class="cls-1" d="M149,7c0,14-9.38,25.4-21.29,30.75h24.43a17.94,17.94,0,0,1,.55,4.35c0,7.72-6.1,17.38-17.39,17.38-12,0-17.38-10.58-17.38-17.38,0-.4,0-1,0-1a42.2,42.2,0,0,1-5.24.92V58H95.27V7h17.39V38.47S128.05,31.71,128.05,7Z"/><path class="cls-1" d="M53.67,7c0,14-9.38,25.4-21.28,30.75H56.82a17.94,17.94,0,0,1,.55,4.35c0,7.72-6.1,17.38-17.39,17.38-12,0-17.38-10.58-17.38-17.38,0-.4,0-1,0-1a41.76,41.76,0,0,1-5.24.92V58H0V7H17.38V38.47S32.78,31.71,32.78,7Z"/><path class="cls-1" d="M85.48,2.15A10.73,10.73,0,0,1,64,2.15,10.81,10.81,0,0,1,64.23,0h21A10.81,10.81,0,0,1,85.48,2.15Z"/><path class="cls-1" d="M64,32.39a10.73,10.73,0,0,1,21.46,0,11,11,0,0,1-.21,2.15h-21A11,11,0,0,1,64,32.39Z"/><path class="cls-1" d="M89.87,28a10.74,10.74,0,0,1,0-21.47A10.89,10.89,0,0,1,92,6.75v21A10.89,10.89,0,0,1,89.87,28Z"/><path class="cls-1" d="M59.63,6.53a10.74,10.74,0,0,1,0,21.47,10.89,10.89,0,0,1-2.15-.21v-21A10.89,10.89,0,0,1,59.63,6.53Z"/><circle class="cls-1" cx="74.75" cy="17.27" r="2.74"/></g></g></svg>